<svg id="Layer_1" data-name="Layer 1" xmlns="http://www.w3.org/2000/svg" xmlns:xlink="http://www.w3.org/1999/xlink" viewBox="0 0 1291.67 1385.33"><defs><style>.cls-1{fill:url(#linear-gradient);}.cls-2{fill:url(#linear-gradient-2);}.cls-3{fill:url(#linear-gradient-3);}.cls-4{fill:url(#linear-gradient-4);}.cls-5{fill:url(#linear-gradient-5);}.cls-6{fill:url(#linear-gradient-6);}.cls-7{fill:url(#linear-gradient-7);}.cls-8{fill:url(#linear-gradient-8);}.cls-9{fill:url(#linear-gradient-9);}.cls-10{fill:url(#linear-gradient-10);}.cls-11{fill:url(#linear-gradient-11);}.cls-12{fill:url(#linear-gradient-12);}.cls-13{fill:url(#linear-gradient-13);}</style><linearGradient id="linear-gradient" x1="303.43" y1="928.59" x2="1491.98" y2="928.59" gradientTransform="matrix(1, 0, 0, -1, 0, 1700)" gradientUnits="userSpaceOnUse"><stop offset="0" stop-color="#fcee21"/><stop offset="0.15" stop-color="#fcde1f"/><stop offset="0.28" stop-color="#fda617"/><stop offset="0.41" stop-color="#fd7410"/><stop offset="0.54" stop-color="#fe4a0a"/><stop offset="0.67" stop-color="#fe2a06"/><stop offset="0.79" stop-color="#ff1303"/><stop offset="0.9" stop-color="#ff0501"/><stop offset="1" stop-color="red"/></linearGradient><linearGradient id="linear-gradient-2" x1="1041.39" y1="1342.32" x2="1304.88" y2="1342.32" gradientTransform="matrix(1, 0, 0, -1, 0, 1700)" gradientUnits="userSpaceOnUse"><stop offset="0" stop-color="#fcee21"/><stop offset="0.15" stop-color="#fdb419"/><stop offset="0.31" stop-color="#fd7e11"/><stop offset="0.47" stop-color="#fe510b"/><stop offset="0.62" stop-color="#fe2e06"/><stop offset="0.77" stop-color="#ff1503"/><stop offset="0.9" stop-color="#ff0501"/><stop offset="1" stop-color="red"/></linearGradient><linearGradient id="linear-gradient-3" x1="347.29" y1="295.77" x2="423.3" y2="295.77" gradientTransform="matrix(1, 0, 0, -1, 0, 1700)" gradientUnits="userSpaceOnUse"><stop offset="0" stop-color="#fcee21"/><stop offset="0.04" stop-color="#fdb119"/><stop offset="0.09" stop-color="#fd7b11"/><stop offset="0.13" stop-color="#fe4f0b"/><stop offset="0.17" stop-color="#fe2d06"/><stop offset="0.21" stop-color="#ff1403"/><stop offset="0.25" stop-color="#ff0501"/><stop offset="0.27" stop-color="red"/></linearGradient><linearGradient id="linear-gradient-4" x1="436.27" y1="295.79" x2="542.5" y2="295.79" xlink:href="#linear-gradient-3"/><linearGradient id="linear-gradient-5" x1="558.5" y1="294.8" x2="669" y2="294.8" xlink:href="#linear-gradient-3"/><linearGradient id="linear-gradient-6" x1="684.62" y1="295.79" x2="790.85" y2="295.79" xlink:href="#linear-gradient-3"/><linearGradient id="linear-gradient-7" x1="799.7" y1="295.79" x2="906" y2="295.79" xlink:href="#linear-gradient-3"/><linearGradient id="linear-gradient-8" x1="962.99" y1="295.77" x2="1051.28" y2="295.77" xlink:href="#linear-gradient-3"/><linearGradient id="linear-gradient-9" x1="1061.91" y1="295.7" x2="1162.36" y2="295.7" xlink:href="#linear-gradient-3"/><linearGradient id="linear-gradient-10" x1="1179.84" y1="295.75" x2="1268.09" y2="295.75" xlink:href="#linear-gradient-3"/><linearGradient id="linear-gradient-11" x1="1286.81" y1="295.78" x2="1382.67" y2="295.78" xlink:href="#linear-gradient-3"/><linearGradient id="linear-gradient-12" x1="1396.96" y1="294.77" x2="1494.31" y2="294.77" xlink:href="#linear-gradient-3"/><linearGradient id="linear-gradient-13" x1="1504.05" y1="295.8" x2="1595.1" y2="295.8" xlink:href="#linear-gradient-3"/></defs><path class="cls-1" d="M1317.68,999c-75.94-97.13-129.88-165.11-166-210.35,0,0-36.66-46.12-89.78-110Q1028.87,639,995,600c-16.22-18.58-32.65-37-49.54-55-10.65-11.33-21.51-22.47-32.78-33.2-6.6-6.29-13.37-12.38-20.54-18-2.79-2.21-5.66-4.3-8.65-6.23a44.27,44.27,0,0,0-7.66-4,9.91,9.91,0,0,0-5.22-.64,3.73,3.73,0,0,0-3,2.39,8,8,0,0,0-.4,1.26,19.83,19.83,0,0,0-.4,6,73.68,73.68,0,0,0,2.51,13.74,244.59,244.59,0,0,0,8,24c5.28,13.92,11.2,27.57,17.38,41.11,10.61,23.23,21.91,46.13,33.61,68.84,3,5.83,5.51,10.6,7.8,14.88,9.08,17,15.95,29.38,17.77,32.64C967.33,711.85,978.44,735.4,991,759c26.71,50.19,45.45,84.69,77,109,0,0,21.55,16.72,48,23,5.28,1.26,15.45,3.34,26,2,3.56-.45,10.57-1.34,17.07-4.23,3.85-1.72,7.84-3.12,11.71-4.78a20.23,20.23,0,0,1,5.62-1.5h.12c1.22.11,2.81.21,3.69,1.3a4.88,4.88,0,0,1,1.24,3.7,22.63,22.63,0,0,1-1.49,5.79c-.87,2-1.68,4.11-2.48,6.18-.88,2.28-1.73,4.57-2.59,6.85a60.37,60.37,0,0,0-3.19,15.2,12.86,12.86,0,0,0,0,2.15,46.88,46.88,0,0,0,4.9,18.82,62.92,62.92,0,0,0,6.43,10.09,72.08,72.08,0,0,0,6.45,7.3c2.26,2.21,4.51,4.42,6.66,6.73q57.13,61.2,114.24,122.42a19.62,19.62,0,0,1,3.44,4,1.58,1.58,0,0,1,.07,1.26,22.12,22.12,0,0,1-1.77,2.81q-7,9.36-14.39,18.36a484.26,484.26,0,0,1-82.5,79.24,438.4,438.4,0,0,1-100.58,56.93,407.77,407.77,0,0,1-54.43,17.61c-7.11,1.75-14.27,3.31-21.49,4.58-5.68,1-11.35,2.12-17.09,2.73-4.52,1-9.16,1.12-13.73,1.75-1.54.21-4,.49-5.6.61-3.27.26-6.54.56-9.81.79-2.88.2-5.76.41-8.65.5-13.53.41-27.06.35-40.59-.07-2.76-.08-5.51-.34-8.25-.66-1.83-.21-3.67-.34-5.5-.41a86,86,0,0,1-9.87-.9c-2-.31-4.07-.47-6.1-.61a45.66,45.66,0,0,1-4.93-.69,17.83,17.83,0,0,0-2.19-.35c-5.43-.52-10.78-1.54-16.15-2.42s-10.93-2-16.37-3q-13-2.67-25.93-6c-45.74-12-89.21-29.72-130.84-52.06a631.22,631.22,0,0,1-74.45-46.71c-8.61-6.3-17-12.81-25.09-19.83-2.17-1.9-4.25-3.91-6.37-5.87a9.51,9.51,0,0,1-3.06-5c-.09-.43-.37-.82-.46-1.25a2.76,2.76,0,0,1,.29-1.93,30.37,30.37,0,0,1,2.18-3.34c2.2-2.8,4.43-5.57,6.72-8.29,6.17-7.28,12.54-14.39,19-21.42,4.26-4.65,11-12.41,14.94-17.37a96.23,96.23,0,0,1,7.83-8.81,90.15,90.15,0,0,1,29.94-19.52,161.62,161.62,0,0,1,20.24-6.61c5.15-1.34,10.31-2.64,15.48-4s10.54-2.88,15.69-4.75a48.76,48.76,0,0,0,13.61-7.58,127.55,127.55,0,0,0,16-15c4.78-5.28,9.22-10.83,13.51-16.51,6-8,11.78-16.15,17.46-24.38q14-20.29,28-40.61,47.91-69.41,100-135.76c4.1-5.26,8.23-10.49,12.32-15.75.68-.87,1.29-1.8,1.89-2.73a1,1,0,0,0-.18-1.19,2.15,2.15,0,0,0-.45-.5c-2.2-1.5-4.39-3-6.61-4.47a2.49,2.49,0,0,0-3.47.66l0,0c-1.24,1.57-2.45,3.16-3.67,4.75q-16.82,22-33.63,43.92-33.13,43-66.34,86c-8.4,10.92-16.72,21.9-25.08,32.84-1.35,1.77-2.72,3.52-4.09,5.27a1.8,1.8,0,0,1-2.36.42c-3.91-3.28-7.83-6.56-11.46-10.15a1.72,1.72,0,0,1-.11-1.85c.9-1.26,1.8-2.54,2.74-3.77l60-78.32L913.63,768c.81-1,1.58-2.15,2.35-3.23a1.38,1.38,0,0,0-.07-1.79,9.35,9.35,0,0,0-1-.89q-3-2.05-6.11-4.05a2.34,2.34,0,0,0-3,.3c-1.16,1.35-2.32,2.69-3.44,4.08L816.88,868.17,775.81,919c-1.25,1.54-2.32,3.27-4,4.45a2.33,2.33,0,0,1-1.25.14,1,1,0,0,1-.57-.31q-5.25-4.62-10.49-9.25a1.61,1.61,0,0,1-.27-1.82c.25-.36.45-.77.72-1.11q1.65-2.1,3.33-4.17l30.15-37.34q47.73-59.13,95.45-118.27c.84-1,1.57-2.15,2.34-3.23a1.64,1.64,0,0,0-.4-1.8A129.55,129.55,0,0,0,880,739a4.37,4.37,0,0,0-1.53.08,2.66,2.66,0,0,0-1.06.76c-1.45,1.68-2.89,3.38-4.3,5.09L771.91,868q-10.15,12.36-20.32,24.71c-1.42,1.72-2.86,3.41-4.3,5.1a1.75,1.75,0,0,1-2.35.43c-3.8-2.72-7.59-5.43-11.36-8.17-1.31-1-1.37-2-.22-3.39q5.07-6.2,10.18-12.35L861,732.71c.84-1,1.62-2.1,2.42-3.16a1.58,1.58,0,0,0-.39-1.78,67.6,67.6,0,0,0-8.33-5.48,1.4,1.4,0,0,0-1.24.15,21.56,21.56,0,0,0-2.4,2.28q-9.36,10.41-18.67,20.86l-73.3,82L664.92,933c-.29.33-.57.68-.89,1a56.34,56.34,0,0,0-9.91,14.13,98.44,98.44,0,0,0-9,23.67,20.88,20.88,0,0,0-.43,2.61,112.53,112.53,0,0,0-.65,11.9c0,6.58-.27,13.16-.64,19.74-.13,2.18-.53,5.74-.87,7.9-.58,3.6-1,7.22-1.65,10.82a141.29,141.29,0,0,1-14.08,40.85,99.9,99.9,0,0,1-13.17,19l-44,50.25L507.26,1206l-76.85,87.77q-43,49.08-85.94,98.13a36.42,36.42,0,0,0-4.55,6.47,77.21,77.21,0,0,0-7.86,19.33,42.78,42.78,0,0,0-.54,17.2,30.26,30.26,0,0,0,3.74,9.93,47.69,47.69,0,0,0,6.35,8.54c1.5,1.64,3,3.24,4.53,4.89a10.11,10.11,0,0,1,1.09,1.66,2.47,2.47,0,0,1-.92,3.36l-.08,0a6.84,6.84,0,0,1-2.54.71,9.55,9.55,0,0,1-2,0,49.83,49.83,0,0,1-27.39-12.61,33.94,33.94,0,0,1-4.43-5,33,33,0,0,1-6.43-18.6,49.25,49.25,0,0,1,2.12-15.26,73.26,73.26,0,0,1,4.79-12.55,150.72,150.72,0,0,1,10.49-18.08,88.49,88.49,0,0,1,17.13-19,80.18,80.18,0,0,0,8-7.64q67.08-72.36,134.17-144.7l90.65-97.77a28.67,28.67,0,0,0,4.27-5.12,25.11,25.11,0,0,0-3.26-5.08,527.28,527.28,0,0,1-30.42-47.75,511.13,511.13,0,0,1-45.55-107.75c-4-13.64-7.41-27.43-10.12-41.4-1.48-7.63-2.89-15.26-4-23-1-6.81-1.81-13.64-2.68-20.47-.93-7.39-1.07-14.82-2-22.2v-.54q-1.32-28.9-.09-57.81c.09-2.22.32-4.43.49-6.65s.39-4.22.51-6.34c.2-3.58.57-7.15,1-10.72.54-4.7,1.05-9.4,1.65-14.1.67-5.28,1.55-10.54,2.35-15.81.91-5.93,2-11.82,3.21-17.69C495,666.52,509.8,624.85,532,585.88c7.8-13.72,16.26-27,25.12-40.08,8.48-12.5,17.23-24.82,26.14-37q12.46-17.07,25-34.12,19.42-26.68,41.08-51.6,14.3-16.51,28.4-33.19c17-20.23,33.48-40.91,49.76-61.75,13.27-17,26.42-34.06,39.15-51.45,8.8-12,17.37-24.18,25.48-36.67,5.69-8.76,11.13-17.67,16.06-26.88a201,201,0,0,0,11.59-25.44,123.43,123.43,0,0,0,5.91-23.09c.12-.78.2-1.57.25-2.36.13-2.35.28-4.7.31-7.05.14-9.61-.48-15.25-3.53-26.31-1.54-5.56-3.54-11-5.5-16.41-1.81-5-3.67-10-5.08-15.16a33.9,33.9,0,0,1-1.18-7.88,21.48,21.48,0,0,1,.35-4A8.43,8.43,0,0,1,818.09,79a26.14,26.14,0,0,1,10.56.69,75,75,0,0,1,11.24,4.14c4.05,1.83,8,3.88,11.85,6.07a266.14,266.14,0,0,1,23,14.73,132.32,132.32,0,0,1,28.1,27.31,173,173,0,0,1,18.09,29.49A253.6,253.6,0,0,1,935.23,198q5.71,18.45,9.63,37.39,3,14,5.4,28.13c1.42,8.32,2.71,16.65,4,25,1.2,7.46,2.18,15,3.37,22.4,1.22,7.68,2,15.42,3.25,23.09,1.14,7.24,2.15,14.5,3.3,21.74,1.06,6.58,2.1,13.16,3.19,19.73.94,5.7,1.94,11.38,3.07,17,1.52,7.62,3.07,15.24,4.83,22.81a385.46,385.46,0,0,0,15.89,52.9,242.2,242.2,0,0,0,15,31.91,183.17,183.17,0,0,0,18.1,26.33,156.72,156.72,0,0,0,41.94,35.63A190.51,190.51,0,0,0,1109,580.4a176,176,0,0,0,22.88,5.41,195,195,0,0,0,22.47,2.79c1.69.11,3.39.26,5.08.39a132,132,0,0,0,21.87-.23c1.1-.1,2.21-.16,3.32-.19a121.16,121.16,0,0,0,16-1.85,184,184,0,0,0,24.63-5.72,206.22,206.22,0,0,0,59.43-29.43,223.52,223.52,0,0,0,20.79-16.68c1.15-1,2.33-2,3.5-3.08a1.73,1.73,0,0,1,1.84-.21c.54.4,1.11.76,1.6,1.19a267.35,267.35,0,0,1,74.9,107.81,334.69,334.69,0,0,1,12.18,39.4c3.61,15,4.22,18.45,6.1,28.66,1.24,6.76,2.42,13.55,3.26,20.39.59,4.84,1.42,9.66,2.1,14.5.49,3.52.61,7.09,1.35,10.58.47,6.35,1.68,12.64,1.87,19,0,.9.11,1.8.23,2.7a139.76,139.76,0,0,1,1,15.44c.16,6.45.29,12.89.45,20-.2,7.75-.42,16.21-.66,24.66-.06,1.88-.17,3.76-.39,5.62-.42,3.64-.66,7.3-.92,11-.12,1.77-.37,3.53-.57,5.3-.11.88-.27,1.75-.38,2.64-1.43,12.56-1.79,14.73-4,27.68a427.14,427.14,0,0,1-10,44.16,487.54,487.54,0,0,1-24.29,67.64c-3.17,7.09-6.54,14.1-9.78,21.16a2.27,2.27,0,0,0,.17,1.92,6.29,6.29,0,0,0,.75,1.1c.69.88,1.39,1.74,2.09,2.6l78.44,96,39.51,48.38a14.86,14.86,0,0,1,1,1.14c12.8,15.9.53,55.18-22.87,62.66-13.67,4.37-31.1-2.13-32-9-1-8,21.13-10.92,26-26,5.34-16.54-13.8-36.4-20-43C1411.54,1128.85,1373.58,1079.54,1317.68,999Z" transform="translate(-303.43 -78.75)"/><path class="cls-2" d="M1304.87,400.22a144.9,144.9,0,0,1-.82,17.3,165.94,165.94,0,0,1-3,18.4,122,122,0,0,1-40.24,67.45,146.63,146.63,0,0,1-48.4,27.63,148.79,148.79,0,0,1-18.79,5,70.61,70.61,0,0,1-11.56,1.74,7.7,7.7,0,0,0-1.27.13c-6.39,1.09-12.84,1-19.28.94a79.6,79.6,0,0,1-10-.8c-.65-.09-1.3-.16-2-.23a117.26,117.26,0,0,1-32.19-8,143.45,143.45,0,0,1-49-32.56,101.43,101.43,0,0,1-15.46-20.12,104.25,104.25,0,0,1-9.68-24.55,46,46,0,0,1-1.06-6.61c-.07-1-.17-2-.32-3a37.45,37.45,0,0,1-.3-8.33,73.41,73.41,0,0,1,5.55-23.89,129.58,129.58,0,0,1,6.76-13.74c2.32-4,4.71-8,7.09-12.06,3.75-6.3,7.58-12.54,11.26-18.88a224.64,224.64,0,0,0,13.08-26.21,198.37,198.37,0,0,0,12-40.12c1.19-6.33,2-12.7,2.78-19.1a198.31,198.31,0,0,0,.76-28.63c0-1.77-.24-3.54-.4-5.31-.12-1.3-.32-2.6-.45-3.91-.55-5.69-1.92-15-2.93-20.58-.74-4.13-1.5-8.25-2.31-12.36-.56-2.83-1-5.69-1.3-8.56-.24-2.2-.24-4.43-.3-6.65a17.57,17.57,0,0,1,1.33-6.71,14.06,14.06,0,0,1,3.62-5.43,20.39,20.39,0,0,1,8.59-4.66,42.6,42.6,0,0,1,16.52-1,114.44,114.44,0,0,1,26.37,6.81A197.29,197.29,0,0,1,1180,198.6a275.94,275.94,0,0,1,52.59,40.69,265.58,265.58,0,0,1,37.11,45.27,220.29,220.29,0,0,1,23.91,48.95,216.72,216.72,0,0,1,6.05,21.81,198.38,198.38,0,0,1,3.53,19.66,182.44,182.44,0,0,1,1.67,19.25C1304.9,396.22,1304.87,398.22,1304.87,400.22Z" transform="translate(-303.43 -78.75)"/><path class="cls-3" d="M423.3,1359.08v60a113.25,113.25,0,0,1-.67,13.28,41.42,41.42,0,0,1-3,11.09,29.85,29.85,0,0,1-12.89,14.73q-9,5.28-21.87,5.27-11.64,0-19.42-3.67a28.41,28.41,0,0,1-12.53-11.87,43.2,43.2,0,0,1-4.07-10.08,41.12,41.12,0,0,1-1.56-10.86q0-5.46,3-8.36a10.9,10.9,0,0,1,7.81-2.89q4.61,0,7,2.66c1.57,1.77,2.76,4.53,3.6,8.28a75.92,75.92,0,0,0,2.65,9.61,14.46,14.46,0,0,0,4.46,6.17q3.12,2.58,8.9,2.58,15.39,0,15.39-22.58v-63.36q0-7,3.09-10.55a10.62,10.62,0,0,1,8.4-3.51,10.92,10.92,0,0,1,8.55,3.51Q423.31,1352.06,423.3,1359.08Z" transform="translate(-303.43 -78.75)"/><path class="cls-4" d="M517.75,1448.53l-5.47-14.37H465.72l-5.47,14.68c-2.14,5.74-4,9.6-5.47,11.61s-4,3-7.42,3a10.87,10.87,0,0,1-7.74-3.2,9.77,9.77,0,0,1-3.35-7.26,16,16,0,0,1,.78-4.85q.78-2.49,2.57-7l29.3-74.38,3-7.69a38.6,38.6,0,0,1,3.75-7.46,15.26,15.26,0,0,1,5.23-4.81,18.6,18.6,0,0,1,16.09,0,15.6,15.6,0,0,1,5.23,4.73,33.25,33.25,0,0,1,3.36,6.21q1.37,3.32,3.48,8.87l29.92,73.9q3.51,8.45,3.52,12.27a10.12,10.12,0,0,1-3.33,7.3,10.86,10.86,0,0,1-8,3.32,10.4,10.4,0,0,1-4.69-1,9.52,9.52,0,0,1-3.28-2.66,24,24,0,0,1-2.85-5.15C519.34,1452.32,518.48,1450.3,517.75,1448.53Zm-45.94-31.79H506l-17.26-47.27Z" transform="translate(-303.43 -78.75)"/><path class="cls-5" d="M598.22,1444.24l-18.36-73v79.06c0,4.37-1,7.66-2.93,9.84a10.76,10.76,0,0,1-15.22.21l-.21-.21q-3-3.24-3-9.88V1359.7q0-7.5,3.91-10.11T573,1347h7.19q6.48,0,9.42,1.17a7.92,7.92,0,0,1,4.33,4.22,64.81,64.81,0,0,1,3.2,9.92L613.77,1425l16.64-62.74a64.81,64.81,0,0,1,3.2-9.92,7.92,7.92,0,0,1,4.33-4.22q2.94-1.17,9.42-1.17h7.19q6.63,0,10.54,2.62T669,1359.7v90.63c0,4.37-1,7.66-2.93,9.84a10,10,0,0,1-7.85,3.28,9.77,9.77,0,0,1-7.58-3.28c-2-2.18-3-5.47-3-9.84v-79.06l-18.36,73q-1.8,7.11-2.93,10.43a14.33,14.33,0,0,1-4.18,6q-3,2.73-8.43,2.73a12.29,12.29,0,0,1-11.25-6.25,25.13,25.13,0,0,1-2.47-6C599.45,1448.94,598.84,1446.63,598.22,1444.24Z" transform="translate(-303.43 -78.75)"/><path class="cls-6" d="M766.11,1448.53l-5.47-14.37H714.08l-5.47,14.68c-2.14,5.74-4,9.6-5.47,11.61s-4,3-7.42,3a10.87,10.87,0,0,1-7.74-3.2,9.81,9.81,0,0,1-3.36-7.26,16,16,0,0,1,.79-4.85q.78-2.49,2.57-7l29.3-74.38,3-7.69a38.6,38.6,0,0,1,3.75-7.46,15.26,15.26,0,0,1,5.23-4.81,18.6,18.6,0,0,1,16.09,0,15.6,15.6,0,0,1,5.23,4.73,33.25,33.25,0,0,1,3.36,6.21q1.37,3.32,3.48,8.87l29.92,73.9q3.51,8.45,3.51,12.27a10.07,10.07,0,0,1-3.32,7.3,10.86,10.86,0,0,1-8,3.32,10.4,10.4,0,0,1-4.69-1,9.52,9.52,0,0,1-3.28-2.66,24,24,0,0,1-2.85-5.15C767.7,1452.32,766.84,1450.3,766.11,1448.53Zm-45.94-31.79h34.22l-17.27-47.27Z" transform="translate(-303.43 -78.75)"/><path class="cls-7" d="M881.19,1448.53l-5.47-14.37H829.16l-5.47,14.68c-2.14,5.74-4,9.6-5.47,11.61s-4,3-7.42,3a10.87,10.87,0,0,1-7.74-3.2,9.81,9.81,0,0,1-3.36-7.26,16.29,16.29,0,0,1,.78-4.85q.78-2.49,2.58-7l29.3-74.38,3-7.69a38.6,38.6,0,0,1,3.75-7.46,15.26,15.26,0,0,1,5.23-4.81,18.6,18.6,0,0,1,16.09,0,15.44,15.44,0,0,1,5.24,4.73,33.25,33.25,0,0,1,3.36,6.21q1.37,3.32,3.48,8.87l29.92,73.9Q906,1449,906,1452.83a10.07,10.07,0,0,1-3.32,7.3,10.86,10.86,0,0,1-8,3.32,10.36,10.36,0,0,1-4.68-1,9.52,9.52,0,0,1-3.28-2.66,24.25,24.25,0,0,1-2.86-5.15Q882.28,1451.19,881.19,1448.53Zm-45.94-31.79h34.22l-17.27-47.27Z" transform="translate(-303.43 -78.75)"/><path class="cls-8" d="M1038.45,1364.86H986.19V1393h48.12c3.54,0,6.19.79,7.93,2.38a8.07,8.07,0,0,1,2.62,6.29,8.38,8.38,0,0,1-2.58,6.36c-1.72,1.65-4.37,2.47-8,2.47H986.19v32.57h54.06q5.46,0,8.24,2.54a8.73,8.73,0,0,1,2.78,6.76,8.53,8.53,0,0,1-2.78,6.6c-1.85,1.7-4.6,2.54-8.24,2.54h-63q-7.57,0-10.9-3.36T963,1447.28v-86.09a19.38,19.38,0,0,1,1.49-8.17,9.22,9.22,0,0,1,4.65-4.6,19.43,19.43,0,0,1,8.08-1.45h61.25q5.55,0,8.25,2.46a8.33,8.33,0,0,1,2.69,6.45,8.42,8.42,0,0,1-2.69,6.52Q1044,1364.86,1038.45,1364.86Z" transform="translate(-303.43 -78.75)"/><path class="cls-9" d="M1086.66,1360.25l25.93,76.8,26-77.35q2-6.09,3.05-8.47a11.15,11.15,0,0,1,3.36-4.3,9.86,9.86,0,0,1,6.4-1.91,10.77,10.77,0,0,1,5.51,1.48,11,11,0,0,1,4,4,9.7,9.7,0,0,1,1.45,5,16.54,16.54,0,0,1-.47,3.71,33,33,0,0,1-1.17,3.9c-.47,1.28-.94,2.6-1.41,4L1131.58,1442c-1,2.87-2,5.6-3,8.17a34.65,34.65,0,0,1-3.44,6.79,15.33,15.33,0,0,1-5.19,4.81,15.65,15.65,0,0,1-7.93,1.87,15.85,15.85,0,0,1-7.93-1.83,15,15,0,0,1-5.24-4.85,34.82,34.82,0,0,1-3.47-6.83q-1.49-3.82-3-8.13l-27.27-74.22c-.47-1.35-1-2.68-1.44-4a29.23,29.23,0,0,1-1.25-4.22,17.65,17.65,0,0,1-.51-3.83,10.2,10.2,0,0,1,3.2-7.26,10.78,10.78,0,0,1,8-3.28q5.94,0,8.4,3.63A51,51,0,0,1,1086.66,1360.25Z" transform="translate(-303.43 -78.75)"/><path class="cls-10" d="M1255.25,1364.86H1203V1393h48.13q5.31,0,7.93,2.38a8.13,8.13,0,0,1,2.62,6.29,8.38,8.38,0,0,1-2.58,6.36c-1.72,1.65-4.39,2.48-8,2.47H1203v32.57h54.07q5.46,0,8.24,2.54a8.72,8.72,0,0,1,2.77,6.76,8.52,8.52,0,0,1-2.77,6.6c-1.85,1.7-4.6,2.54-8.24,2.54h-63q-7.58,0-10.9-3.36t-3.32-10.86V1361.2a19.38,19.38,0,0,1,1.49-8.17,9.17,9.17,0,0,1,4.64-4.6,19.49,19.49,0,0,1,8-1.43h61.25q5.55,0,8.24,2.46a9.14,9.14,0,0,1,0,13C1261.7,1364.05,1259,1364.86,1255.25,1364.86Z" transform="translate(-303.43 -78.75)"/><path class="cls-11" d="M1316.73,1358.92l44.61,67.5V1358.3q0-6.65,2.86-10a9.58,9.58,0,0,1,7.69-3.32,9.93,9.93,0,0,1,7.89,3.32q2.9,3.32,2.89,10v90.08q0,15.07-12.5,15.07a16.53,16.53,0,0,1-5.62-.89,14.23,14.23,0,0,1-4.69-2.86,27.56,27.56,0,0,1-4.06-4.57q-1.87-2.61-3.75-5.35l-43.52-66.72v67.11q0,6.57-3,9.92a10.81,10.81,0,0,1-15.3.4l-.4-.4q-3-3.4-3-9.89v-88.36a25.14,25.14,0,0,1,1.25-8.82,12.63,12.63,0,0,1,4.92-5.75,13.54,13.54,0,0,1,7.43-2.22,12.11,12.11,0,0,1,9.25,3.75,27.52,27.52,0,0,1,3.44,4.45Q1314.86,1355.95,1316.73,1358.92Z" transform="translate(-303.43 -78.75)"/><path class="cls-12" d="M1482.44,1366.11h-25.31v83.2q0,7.2-3.21,10.67a10.74,10.74,0,0,1-8.28,3.47,10.89,10.89,0,0,1-8.4-3.51q-3.24-3.53-3.24-10.63v-83.2h-25.31q-5.94,0-8.83-2.62a8.83,8.83,0,0,1-2.89-6.91,8.74,8.74,0,0,1,3-7q3-2.58,8.71-2.58h73.75q6,0,8.94,2.66a8.9,8.9,0,0,1,2.93,6.95,8.76,8.76,0,0,1-3,6.91C1489.35,1365.25,1486.39,1366.12,1482.44,1366.11Z" transform="translate(-303.43 -78.75)"/><path class="cls-13" d="M1595.09,1427.13a33.65,33.65,0,0,1-5.35,18.67,35.65,35.65,0,0,1-15.66,13q-10.32,4.68-24.45,4.68-17,0-28-6.4a37.21,37.21,0,0,1-12.7-12.31q-4.87-7.69-4.88-15a10.14,10.14,0,0,1,10.07-10.23h.32a8.8,8.8,0,0,1,6.21,2.34,18.48,18.48,0,0,1,4.34,6.95,46.07,46.07,0,0,0,4.72,9.15,19.14,19.14,0,0,0,7.15,6q4.61,2.38,12.11,2.38,10.32,0,16.76-4.8t6.44-12a12.71,12.71,0,0,0-3.47-9.26,22.38,22.38,0,0,0-9-5.43q-5.51-1.87-14.72-4a108.15,108.15,0,0,1-20.67-6.75,33.42,33.42,0,0,1-13.2-10.55q-4.89-6.67-4.88-16.6a28.57,28.57,0,0,1,5.15-16.8q5.16-7.34,14.92-11.29t23-3.94a57,57,0,0,1,18.24,2.61,38.74,38.74,0,0,1,12.78,7,29,29,0,0,1,7.42,9.1,20.93,20.93,0,0,1,2.34,9.3,11,11,0,0,1-2.93,7.46,9.32,9.32,0,0,1-7.3,3.32,8.38,8.38,0,0,1-6.06-2,27,27,0,0,1-4.49-6.52,29.69,29.69,0,0,0-7.5-10.12q-4.38-3.63-14.06-3.63-9,0-14.49,4t-5.51,9.49a9.62,9.62,0,0,0,1.88,5.94,15.69,15.69,0,0,0,5.15,4.29,35,35,0,0,0,6.64,2.82q3.36,1,11.1,3a174.29,174.29,0,0,1,17.53,5,53.43,53.43,0,0,1,13.36,6.64,27.24,27.24,0,0,1,8.6,9.89A31.63,31.63,0,0,1,1595.09,1427.13Z" transform="translate(-303.43 -78.75)"/></svg>